<svg width="12" height="13" viewBox="0 0 12 13" fill="none" xmlns="http://www.w3.org/2000/svg">
<circle cx="6" cy="6.93262" r="5.5" fill="#EB6024" stroke="#EB6024"/>
<path d="M8.63495 5.20997L8.84708 4.99784L8.63495 4.78571L8.14687 4.29763L7.93474 4.0855L7.72261 4.29763L5.99974 6.0205L4.27687 4.29763L4.06474 4.0855L3.85261 4.29763L3.36453 4.78571L3.1524 4.99784L3.36453 5.20997L5.0874 6.93284L3.36453 8.65571L3.1524 8.86784L3.36453 9.07998L3.85261 9.56805L4.06474 9.78018L4.27687 9.56805L5.99974 7.84518L7.72261 9.56805L7.93474 9.78018L8.14687 9.56805L8.63495 9.07998L8.84708 8.86784L8.63495 8.65571L6.91208 6.93284L8.63495 5.20997Z" fill="white" stroke="white" stroke-width="0.6"/>
</svg>
