<svg width="19" height="20" viewBox="0 0 19 20" fill="none" xmlns="http://www.w3.org/2000/svg">
<path d="M3.02002 5.625C3.02002 3.4425 4.79585 1.66667 6.97835 1.66667H14.5892C14.315 0.7075 13.4409 0 12.395 0H2.81169C1.54752 0 0.52002 1.0275 0.52002 2.29167V15.2083C0.52002 16.4725 1.54752 17.5 2.81169 17.5H3.02002V5.625Z" fill="#00A3FF"/>
<path d="M16.5616 3.33301H6.97831C5.71415 3.33301 4.68665 4.36051 4.68665 5.62468V17.708C4.68665 18.9722 5.71415 19.9997 6.97831 19.9997H16.5616C17.8258 19.9997 18.8533 18.9722 18.8533 17.708V5.62468C18.8533 4.36051 17.8258 3.33301 16.5616 3.33301ZM14.895 17.4997H8.64498C8.29998 17.4997 8.01998 17.2197 8.01998 16.8747C8.01998 16.5297 8.29998 16.2497 8.64498 16.2497H14.895C15.24 16.2497 15.52 16.5297 15.52 16.8747C15.52 17.2197 15.24 17.4997 14.895 17.4997ZM14.895 14.1664H8.64498C8.29998 14.1664 8.01998 13.8864 8.01998 13.5414C8.01998 13.1964 8.29998 12.9164 8.64498 12.9164H14.895C15.24 12.9164 15.52 13.1964 15.52 13.5414C15.52 13.8864 15.24 14.1664 14.895 14.1664ZM14.895 11.2497H8.64498C8.29998 11.2497 8.01998 10.9697 8.01998 10.6247C8.01998 10.2797 8.29998 9.99968 8.64498 9.99968H14.895C15.24 9.99968 15.52 10.2797 15.52 10.6247C15.52 10.9697 15.24 11.2497 14.895 11.2497ZM14.895 7.91635H8.64498C8.29998 7.91635 8.01998 7.63635 8.01998 7.29135C8.01998 6.94634 8.29998 6.66634 8.64498 6.66634H14.895C15.24 6.66634 15.52 6.94634 15.52 7.29135C15.52 7.63635 15.24 7.91635 14.895 7.91635Z" fill="#00A3FF"/>
</svg>
