<svg width="76" height="47" viewBox="0 0 76 47" fill="none" xmlns="http://www.w3.org/2000/svg">
<path d="M9.936 8.216H5.832V10.304H7.56V14.84C7.416 14.912 7.128 14.96 6.696 14.96C5.016 14.96 3.336 13.472 3.336 9.08C3.336 4.52 5.256 2.984 7.344 2.984C8.16 2.984 8.76 3.128 9.192 3.368L9.696 1.16C9.192 0.896 8.328 0.68 7.2 0.68C4.032 0.68 0.72 2.984 0.672 9.056C0.648 11.936 1.416 14.24 2.688 15.56C3.768 16.688 5.136 17.144 6.792 17.144C7.896 17.144 9.24 16.856 9.936 16.568V8.216ZM12.3613 0.823999V17H14.9293V0.823999H12.3613ZM22.9834 17L26.7274 0.823999H23.9434L22.6234 8.024C22.3114 9.896 21.9514 11.96 21.7354 13.952H21.6634C21.4234 11.984 21.0154 9.848 20.7034 8.072L19.3594 0.823999H16.5514L20.1994 17H22.9834ZM34.7068 7.496H30.8668V3.056H34.9468V0.823999H28.2988V17H35.2348V14.768H30.8668V9.632H34.7068V7.496ZM41.8549 17L43.1749 10.592C43.5109 8.912 43.7989 7.136 44.0629 5.24H44.1109C44.3029 7.112 44.5669 8.936 44.8549 10.544L46.0789 17H48.6949L51.6709 0.823999H49.1749L48.1189 7.808C47.8789 9.68 47.6389 11.408 47.3989 13.64H47.3509C47.1349 11.432 46.8229 9.632 46.4869 7.76L45.2389 0.823999H43.1269L41.8309 7.856C41.4709 9.848 41.1109 11.6 40.8949 13.64H40.8229C40.6069 11.648 40.4149 9.8 40.1509 7.88L39.0949 0.823999H36.4309L39.3589 17H41.8549ZM58.3104 12.776L59.1744 17H61.6704L58.3344 0.823999H55.3344L51.7344 17H54.2304L55.0944 12.776H58.3104ZM55.3824 10.784L56.1024 7.064C56.2944 6.056 56.5344 4.52 56.7024 3.392H56.7744C56.9664 4.52 57.1824 6.008 57.3744 7.064L58.0464 10.784H55.3824ZM67.2662 17V10.424L70.9382 0.823999H68.2742L67.1222 4.688C66.7622 5.888 66.4262 7.088 66.1862 8.312H66.1382C65.8262 7.088 65.4662 5.84 65.1302 4.76L63.8822 0.823999H61.1462L64.6982 10.52V17H67.2662ZM1.416 46H3.96V39.712C4.2 39.712 4.416 39.712 4.68 39.712C6.048 39.712 7.608 39.184 8.568 38.056C9.312 37.192 9.768 36.064 9.768 34.432C9.768 33.04 9.336 31.792 8.472 30.976C7.512 30.064 6.144 29.752 4.44 29.752C3.288 29.752 2.256 29.872 1.416 30.064V46ZM3.96 31.96C4.176 31.888 4.512 31.84 4.848 31.84C6.576 31.84 7.2 33.112 7.2 34.624C7.2 36.496 6.264 37.648 4.584 37.648C4.344 37.648 4.152 37.648 3.96 37.6V31.96ZM11.7519 46H14.2959V39.28H14.8959C16.1679 39.28 16.7679 39.976 17.0799 42.064C17.3679 43.96 17.7039 45.544 17.9199 46H20.5839C20.3199 45.448 19.9359 43.72 19.5759 41.752C19.2639 39.832 18.6639 38.752 17.5359 38.344V38.296C19.1679 37.552 20.0799 36.088 20.0799 34.216C20.0799 32.872 19.7439 31.792 18.8559 30.928C17.8959 30.04 16.5039 29.752 14.8479 29.752C13.7679 29.752 12.6399 29.848 11.7519 30.064V46ZM14.2959 31.864C14.5119 31.792 14.8479 31.768 15.1599 31.768C16.8399 31.792 17.4639 32.872 17.4639 34.456C17.4639 36.112 16.5039 37.312 14.9679 37.312H14.2959V31.864ZM28.8006 36.496H24.9606V32.056H29.0406V29.824H22.3926V46H29.3286V43.768H24.9606V38.632H28.8006V36.496ZM41.568 46H43.896L42.936 29.824H40.176L38.664 36.376C38.184 38.488 37.824 40.168 37.536 41.992H37.488C37.176 40.168 36.768 38.464 36.264 36.376L34.704 29.824H31.992L30.912 46H33.144L33.432 39.832C33.528 37.912 33.624 35.776 33.648 33.952H33.72C34.008 35.752 34.44 37.768 34.872 39.4L36.456 45.808H38.208L39.888 39.232C40.272 37.672 40.704 35.728 41.016 33.952H41.088C41.064 35.728 41.16 37.936 41.256 39.76L41.568 46ZM46.2988 29.824V46H48.8668V29.824H46.2988ZM51.6409 29.824V40.168C51.6409 44.2 53.0809 46.192 56.0329 46.192C58.8409 46.192 60.4729 44.224 60.4729 40.048V29.824H57.9049V40.48C57.9049 43.12 57.1609 43.936 56.0569 43.936C55.0249 43.936 54.2089 43.096 54.2089 40.48V29.824H51.6409ZM73.3493 46H75.6773L74.7173 29.824H71.9573L70.4453 36.376C69.9653 38.488 69.6053 40.168 69.3173 41.992H69.2693C68.9573 40.168 68.5493 38.464 68.0453 36.376L66.4853 29.824H63.7733L62.6933 46H64.9253L65.2133 39.832C65.3092 37.912 65.4053 35.776 65.4293 33.952H65.5013C65.7893 35.752 66.2213 37.768 66.6533 39.4L68.2373 45.808H69.9893L71.6693 39.232C72.0533 37.672 72.4853 35.728 72.7973 33.952H72.8693C72.8453 35.728 72.9413 37.936 73.0373 39.76L73.3493 46Z" fill="white"/>
</svg>
