<svg width="16" height="16" viewBox="0 0 16 16" fill="none" xmlns="http://www.w3.org/2000/svg">
<path d="M11.6689 0H4.33105C1.94287 0 0 1.94287 0 4.33105V11.669C0 14.0571 1.94287 16 4.33105 16H11.669C14.0571 16 16 14.0571 16 11.669V4.33105C16 1.94287 14.0571 0 11.6689 0V0ZM15.062 11.669C15.062 13.5399 13.5399 15.062 11.6689 15.062H4.33105C2.46008 15.062 0.937986 13.5399 0.937986 11.669V4.33105C0.937986 2.46008 2.46008 0.937986 4.33105 0.937986H11.669C13.5399 0.937986 15.062 2.46008 15.062 4.33105V11.669Z" fill="black"/>
<path d="M8.00005 3.62518C5.5877 3.62518 3.62518 5.5877 3.62518 8.00005C3.62518 10.4124 5.5877 12.3749 8.00005 12.3749C10.4124 12.3749 12.3749 10.4124 12.3749 8.00005C12.3749 5.5877 10.4124 3.62518 8.00005 3.62518ZM8.00005 11.4369C6.10504 11.4369 4.56317 9.89519 4.56317 8.00005C4.56317 6.10504 6.10504 4.56317 8.00005 4.56317C9.89519 4.56317 11.4369 6.10504 11.4369 8.00005C11.4369 9.89519 9.89519 11.4369 8.00005 11.4369Z" fill="black"/>
<path d="M12.4794 2.07147C11.7665 2.07147 11.1867 2.65143 11.1867 3.36419C11.1867 4.07708 11.7665 4.65704 12.4794 4.65704C13.1923 4.65704 13.7723 4.07708 13.7723 3.36419C13.7723 2.65131 13.1923 2.07147 12.4794 2.07147ZM12.4794 3.71893C12.2839 3.71893 12.1247 3.55975 12.1247 3.36419C12.1247 3.16852 12.2839 3.00946 12.4794 3.00946C12.6751 3.00946 12.8343 3.16852 12.8343 3.36419C12.8343 3.55975 12.6751 3.71893 12.4794 3.71893Z" fill="black"/>
</svg>
