<svg width="22" height="49" viewBox="0 0 22 49" fill="none" xmlns="http://www.w3.org/2000/svg">
<g clip-path="url(#clip0)">
<path d="M9.76206 33.5201C9.76206 33.5735 9.74871 33.6136 9.70864 33.6537C9.66857 33.6937 9.6285 33.7071 9.57508 33.7071H8.88058C8.82716 33.7071 8.78709 33.6937 8.74703 33.6537C8.70696 33.6136 8.6936 33.5735 8.6936 33.5201V31.263C8.6936 31.2096 8.70696 31.1695 8.74703 31.1295C8.78709 31.0894 8.82716 31.076 8.88058 31.076H9.57508C9.6285 31.076 9.66857 31.0894 9.70864 31.1295C9.74871 31.1695 9.76206 31.2096 9.76206 31.263V31.8774H9.52166V31.2897H8.93401V33.5068H9.53501V32.5986H9.25454V32.3982H9.77542V33.5201H9.76206Z" fill="black"/>
<path d="M10.4298 33.7071H10.1894V31.076H10.4298V33.7071Z" fill="black"/>
<path d="M11.899 31.076L11.4449 33.7205H11.2178L10.7637 31.076H10.9908L11.3113 33.1729L11.3247 33.3465C11.3247 33.3065 11.3247 33.253 11.338 33.1729L11.6586 31.076H11.899Z" fill="black"/>
<path d="M13.0742 33.7071H12.2061V31.076H13.0609V31.2764H12.4465V32.2647H13.0075V32.4784H12.4465V33.5068H13.0742V33.7071Z" fill="black"/>
<path d="M21.7286 48.9192H17.5083L15.8255 38.2748H6.30293L4.62013 48.9192H0.519958V48.799L9.05418 0.919189H13.2478L21.7286 48.9192ZM15.2645 34.5085L11.0709 8.57194L6.85051 34.5085H15.2645Z" fill="black"/>
<path d="M8.77368 35.43L8.65348 34.8557C8.62677 34.7488 8.60006 34.6687 8.5867 34.6153C8.57335 34.5619 8.53328 34.5351 8.4665 34.5084L8.37301 34.4817V34.3882H9.61508V34.4817H9.57502C9.56166 34.4817 9.53495 34.4817 9.50824 34.4951C9.46817 34.5084 9.44146 34.5218 9.41475 34.5351C9.38804 34.5485 9.37468 34.6019 9.37468 34.6954C9.37468 34.7755 9.38804 34.8957 9.41475 35.0427C9.44146 35.1896 9.46817 35.3632 9.50824 35.5368C9.5483 35.7238 9.58837 35.9508 9.64179 36.2447C9.69521 36.5385 9.73528 36.7388 9.76199 36.8724C9.7887 36.7522 9.81541 36.6053 9.85548 36.4316C9.89555 36.258 9.93561 36.0176 10.0024 35.6971C10.0692 35.3765 10.1092 35.1629 10.1226 35.0427C10.1359 34.9225 10.1493 34.829 10.1493 34.7355C10.1493 34.6553 10.1359 34.5886 10.1092 34.5619C10.0825 34.5218 10.0558 34.5084 10.0291 34.4951C10.0024 34.4817 9.96233 34.4817 9.93561 34.4817C9.9089 34.4817 9.88219 34.4817 9.85548 34.4684V34.3749H10.5767V34.4684L10.4565 34.4951C10.4031 34.5084 10.3496 34.5485 10.3096 34.5886C10.2695 34.642 10.2428 34.7221 10.2161 34.8423L10.1359 35.2563L9.53495 38.3548H9.3079L8.80039 35.5502L8.26617 38.3548H8.03913L7.46484 35.2831L7.37135 34.8557C7.34464 34.7355 7.31793 34.6553 7.29121 34.6019C7.2645 34.5485 7.23779 34.5218 7.18437 34.5084L7.09088 34.4817V34.3882H8.30624V34.4817L8.21275 34.4951C8.17268 34.5084 8.13261 34.5218 8.11926 34.5485C8.1059 34.5752 8.09255 34.6153 8.09255 34.6821C8.09255 34.7622 8.1059 34.8957 8.13261 35.0694C8.15933 35.243 8.19939 35.4567 8.25281 35.7104C8.30624 35.9642 8.3463 36.1779 8.37301 36.3782C8.41308 36.5652 8.43979 36.7255 8.4665 36.859L8.77368 35.43Z" fill="white"/>
<path d="M10.9105 37.1261L10.817 37.6871C10.8036 37.8206 10.7903 37.9141 10.7903 37.9942C10.7903 38.0744 10.8036 38.1411 10.817 38.1679C10.8437 38.1946 10.8704 38.2213 10.8971 38.2346C10.9372 38.248 10.9639 38.2614 10.9906 38.2614C11.0173 38.2614 11.0574 38.2747 11.0841 38.2747V38.3682H10.2828V38.2747L10.443 38.248C10.5098 38.2346 10.5499 38.2079 10.59 38.1545C10.6167 38.1144 10.6434 38.0477 10.6567 37.9809C10.6701 37.9141 10.6968 37.834 10.7102 37.7405C10.7235 37.647 10.7502 37.5669 10.7636 37.4867L11.2978 34.3749H11.605L12.1926 37.4867L12.2861 37.9141C12.3128 38.021 12.3395 38.1011 12.3662 38.1545C12.3929 38.2079 12.433 38.2346 12.4864 38.248L12.6066 38.2747V38.3682H11.2711V38.2747C11.2978 38.2747 11.3111 38.2747 11.3379 38.2747C11.3646 38.2747 11.3913 38.2614 11.4313 38.248C11.4848 38.2346 11.5115 38.2079 11.5382 38.1946C11.5649 38.1679 11.5649 38.1278 11.5649 38.0477C11.5649 37.9675 11.5515 37.8473 11.5248 37.7004L11.418 37.1261H10.9105ZM11.418 37.0193L11.1642 35.6837L10.9238 37.0193H11.418Z" fill="white"/>
<path d="M14.0358 37.6737V37.9275C14.0358 38.0477 14.0492 38.1278 14.0759 38.1679C14.0893 38.2079 14.1293 38.2346 14.1694 38.248C14.2095 38.2613 14.2495 38.2613 14.2762 38.2613C14.3163 38.2613 14.343 38.2747 14.3697 38.2747V38.3682H12.9941V38.2747L13.1811 38.2613C13.2345 38.248 13.2746 38.2213 13.3013 38.1812C13.328 38.1411 13.3413 38.061 13.3413 37.9408V37.6871V36.672L12.8071 35.0026C12.7403 34.8156 12.6869 34.6821 12.6602 34.6287C12.6201 34.5619 12.5801 34.5352 12.5133 34.5085L12.4332 34.4951V34.4016H13.742V34.4951L13.5951 34.5085C13.555 34.5218 13.5283 34.5218 13.515 34.5352C13.5016 34.5485 13.4883 34.5886 13.4883 34.642C13.4883 34.6821 13.4883 34.7221 13.5016 34.7622C13.515 34.8023 13.5283 34.8691 13.555 34.9625C13.5817 35.056 13.6485 35.243 13.7287 35.5101C13.8088 35.7772 13.9023 36.031 13.9691 36.2714C14.0358 36.0577 14.1026 35.8306 14.1828 35.5769C14.2629 35.3231 14.3163 35.1362 14.3564 35.0026C14.3964 34.8691 14.4098 34.7622 14.4098 34.6821C14.4098 34.5886 14.3697 34.5218 14.2896 34.5085L14.1828 34.4951V34.4016H14.8505V34.4951L14.7838 34.5085C14.717 34.5085 14.6636 34.5352 14.6235 34.5752C14.5834 34.6287 14.53 34.7221 14.4899 34.8557C14.4365 34.9893 14.3831 35.2029 14.2896 35.4834C14.2095 35.7639 14.1293 36.0443 14.0492 36.3248V37.6737H14.0358Z" fill="white"/>
</g>
<defs>
<clipPath id="clip0">
<rect width="21.2087" height="48" fill="white" transform="translate(0.519958 0.919189)"/>
</clipPath>
</defs>
</svg>
