<svg width="50" height="50" viewBox="0 0 50 50" fill="none" xmlns="http://www.w3.org/2000/svg">
<path d="M50 39.0137C50 45.0586 45.0586 50 39.0137 50H10.9863C4.94141 50 0 45.0586 0 39.0137V10.9863C0 4.94141 4.94141 0 10.9863 0H39.0137C45.0586 0 50 4.94141 50 10.9863V39.0137Z" fill="white"/>
<path d="M29.2761 35.1044L29.2849 31.9288L24.721 29.2938C24.6552 29.2557 24.5897 29.2157 24.5247 29.1738L24.5143 29.1674C24.4515 29.1274 24.3891 29.0875 24.3268 29.0427C24.3052 29.0279 24.284 29.0123 24.2624 28.9971C24.2224 28.9679 24.18 28.9383 24.1392 28.9079C24.1136 28.8887 24.0885 28.8679 24.0633 28.8499C24.0261 28.8216 23.9893 28.7928 23.9529 28.7632C23.9262 28.7413 23.8996 28.7192 23.8729 28.6968C23.8377 28.6678 23.8027 28.6382 23.7678 28.608C23.7411 28.5843 23.7145 28.5605 23.6878 28.5365C23.6534 28.5061 23.6193 28.4752 23.5854 28.4437C23.5582 28.4185 23.5311 28.3937 23.5055 28.3681C23.4711 28.3353 23.4371 28.3022 23.4031 28.269C23.3783 28.2446 23.3531 28.2202 23.3283 28.1954C23.2927 28.1594 23.2576 28.123 23.2224 28.0862C23.2 28.0626 23.1772 28.0394 23.1552 28.0159C23.1152 27.9719 23.0752 27.9271 23.0332 27.8819L22.9881 27.8319C22.9326 27.769 22.878 27.7052 22.8241 27.6404C22.8117 27.6256 22.8001 27.6104 22.7877 27.5956C22.7477 27.5448 22.7046 27.4937 22.6638 27.4421C22.6145 27.3792 22.566 27.3155 22.5182 27.2509L22.4938 27.219C22.4163 27.1138 22.3411 27.0058 22.2675 26.8967L22.2275 26.8367C22.135 26.6975 22.0461 26.556 21.9608 26.4121L21.9281 26.3573C21.8686 26.2554 21.8109 26.1525 21.7549 26.0486C21.7345 26.0106 21.7149 25.9726 21.6953 25.9346C21.6757 25.8966 21.6554 25.8547 21.633 25.8147C21.6046 25.7579 21.577 25.7011 21.5494 25.6439C21.5406 25.6255 21.5314 25.6072 21.5226 25.5888C21.488 25.5149 21.4542 25.4407 21.4214 25.366C21.413 25.3464 21.4046 25.3261 21.3967 25.3077C21.3727 25.2522 21.3492 25.1965 21.3263 25.1405L21.2955 25.0642C21.2744 25.0108 21.2538 24.9575 21.2335 24.9042C21.2247 24.881 21.2159 24.8574 21.2071 24.8342C21.1823 24.7663 21.1583 24.6982 21.1351 24.6299L21.126 24.6035C21.0993 24.5268 21.0748 24.45 21.0524 24.3732C21.0448 24.3488 21.038 24.3244 21.0312 24.3C21.0156 24.2465 21 24.1929 20.9856 24.1401C20.9776 24.1109 20.97 24.0817 20.9624 24.0525C20.9496 24.0029 20.9372 23.9535 20.9252 23.9042C20.9183 23.8749 20.9115 23.8455 20.9048 23.8162C20.8932 23.7654 20.8824 23.7147 20.872 23.6643C20.8664 23.6375 20.8609 23.6103 20.8557 23.5843C20.8431 23.5193 20.8315 23.4545 20.8209 23.39C20.8209 23.3788 20.8169 23.3676 20.8153 23.3564C20.8033 23.2807 20.7926 23.2051 20.7833 23.1297C20.7809 23.1093 20.7789 23.0897 20.7765 23.0685C20.7704 23.0138 20.7648 22.9593 20.7597 22.905C20.7573 22.8794 20.7557 22.8538 20.7537 22.8286C20.7497 22.7774 20.7469 22.7266 20.7445 22.6758C20.7445 22.6518 20.7421 22.6275 20.7413 22.6035C20.7389 22.5315 20.7369 22.4599 20.7373 22.3891L20.7501 17.511L20.3502 17.2806L18.3018 16.0995C17.8816 15.8472 17.4186 15.6741 16.9359 15.5889V15.5917C16.9327 15.6165 16.9307 15.6424 16.9279 15.6672C16.9251 15.692 16.9219 15.7216 16.9195 15.7496C16.9195 15.7612 16.9171 15.772 16.9159 15.7836C16.9127 15.8204 16.9111 15.858 16.9091 15.8956C16.9091 15.9159 16.9063 15.9355 16.9055 15.9567V15.9715C16.9029 16.0347 16.9014 16.0988 16.9011 16.1639V16.1755L16.8779 24.6279C16.8779 24.6876 16.8787 24.7475 16.8803 24.8074C16.8803 24.819 16.8803 24.8302 16.8803 24.8418C16.8803 24.8662 16.8827 24.891 16.8839 24.9154C16.8851 24.9398 16.8859 24.9718 16.8879 25.0002C16.8879 25.0222 16.8915 25.0446 16.8931 25.067C16.8947 25.0893 16.8971 25.1185 16.8995 25.1445C16.8995 25.1609 16.9019 25.1777 16.9035 25.1941C16.9071 25.2313 16.9119 25.2689 16.9159 25.3065C16.9183 25.3273 16.9203 25.3464 16.9227 25.3692L16.9251 25.3892C16.9336 25.4559 16.9431 25.5225 16.9535 25.5892V25.5948C16.9535 25.606 16.9575 25.6175 16.9595 25.6287C16.9683 25.6827 16.9775 25.7367 16.9875 25.7911C16.9895 25.8015 16.9919 25.8119 16.9939 25.8223C16.9991 25.8495 17.0051 25.8767 17.0107 25.9022C17.0163 25.9278 17.0231 25.9658 17.0299 25.9974C17.0339 26.0162 17.0387 26.035 17.0431 26.0534C17.0497 26.0824 17.0565 26.1116 17.0635 26.141C17.0687 26.1629 17.0735 26.1849 17.0787 26.2065C17.0839 26.2281 17.0934 26.2621 17.1006 26.2897C17.1078 26.3173 17.1158 26.3481 17.1234 26.3769C17.1274 26.3909 17.1306 26.4049 17.1342 26.4169C17.145 26.4568 17.157 26.4968 17.169 26.5368C17.1762 26.5612 17.183 26.5856 17.1902 26.61L17.1958 26.63C17.2169 26.699 17.239 26.7681 17.2622 26.8371V26.8407L17.2714 26.8671C17.291 26.9251 17.3114 26.983 17.3322 27.041C17.3358 27.051 17.3398 27.061 17.3434 27.071C17.3518 27.0942 17.3606 27.117 17.3693 27.1402C17.3813 27.1726 17.3933 27.2046 17.4057 27.2369C17.4141 27.2585 17.4229 27.2797 17.4317 27.3013L17.4621 27.3769C17.4697 27.3949 17.4765 27.4133 17.4841 27.4313C17.4997 27.4689 17.5161 27.5064 17.5325 27.544C17.5409 27.5636 17.5489 27.584 17.5577 27.6024L17.5665 27.6228C17.5953 27.6876 17.6247 27.7522 17.6548 27.8167L17.6588 27.8255C17.6676 27.8439 17.6768 27.8623 17.6856 27.8807C17.7092 27.9299 17.7324 27.9795 17.7568 28.0283L17.7688 28.0514C17.7892 28.0914 17.8088 28.1314 17.8312 28.1714C17.848 28.2038 17.864 28.2362 17.8812 28.2682L17.8908 28.2854C17.9465 28.3893 18.0042 28.4922 18.0639 28.594C18.0691 28.6028 18.0735 28.6116 18.0787 28.6204C18.0839 28.6292 18.0911 28.6392 18.0967 28.6488C18.182 28.7928 18.2709 28.9343 18.3634 29.0735C18.3686 29.0811 18.373 29.0891 18.3782 29.0971C18.3834 29.1051 18.3958 29.1214 18.4042 29.1342C18.4777 29.243 18.5525 29.351 18.6305 29.4561L18.6533 29.4857C18.7013 29.5502 18.7499 29.6142 18.7992 29.6776L18.8076 29.6884C18.8476 29.7372 18.8852 29.7852 18.9244 29.8328L18.9592 29.8756L18.962 29.8788C19.0129 29.9401 19.0645 30.0005 19.1167 30.0599L19.1231 30.0671L19.1683 30.1171C19.2027 30.1571 19.2375 30.1947 19.2722 30.2326L19.2902 30.2514C19.3126 30.275 19.335 30.2982 19.3574 30.3218C19.3798 30.3454 19.4094 30.377 19.4374 30.4042L19.4646 30.4314C19.4894 30.4562 19.5142 30.4805 19.5393 30.5049C19.5645 30.5293 19.5833 30.5493 19.6057 30.5705L19.6417 30.6041C19.6685 30.6297 19.6957 30.6549 19.7217 30.6797C19.7413 30.6977 19.7617 30.7161 19.7801 30.7337L19.824 30.7736L19.904 30.8452C19.9212 30.86 19.938 30.8756 19.9556 30.89C19.9732 30.9044 19.9916 30.9192 20.0092 30.9336L20.0891 31C20.1035 31.0115 20.1175 31.0235 20.1319 31.0351C20.1543 31.0527 20.1771 31.0695 20.1995 31.0867C20.2219 31.1039 20.2499 31.1267 20.2751 31.1443L20.3067 31.1683C20.337 31.1907 20.3682 31.2119 20.3986 31.2339C20.4198 31.2491 20.441 31.2647 20.4626 31.2794L20.4798 31.2918C20.5358 31.3302 20.5922 31.3675 20.6489 31.4038L20.6577 31.4094C20.7101 31.4426 20.7629 31.475 20.8177 31.5062L20.8577 31.529L27.8726 35.5807C27.915 35.6052 27.9573 35.6288 27.9994 35.6514L28.0482 35.6766L28.1126 35.7098C28.1294 35.7182 28.1461 35.7274 28.1625 35.7358C28.1897 35.7494 28.2169 35.7614 28.2425 35.7758L28.2993 35.8026L28.3221 35.8134C28.3754 35.8374 28.4287 35.8599 28.482 35.8809L28.4884 35.8833C28.5399 35.9039 28.591 35.9231 28.642 35.9409L28.6636 35.9481L28.7223 35.9673C28.7487 35.9761 28.7755 35.9853 28.8023 35.9933L28.8423 36.0049L28.9131 36.0245C28.9307 36.0293 28.9486 36.0349 28.9658 36.0393C28.983 36.0437 29.0058 36.0477 29.0238 36.0521L29.0942 36.0677L29.1298 36.0757L29.1654 36.0817C29.1918 35.9681 29.2137 35.8506 29.2305 35.7278C29.2594 35.5212 29.2746 35.313 29.2761 35.1044Z" fill="url(#paint0_linear)"/>
<path d="M25.3237 15.6845L20.4811 12.8884L19.6954 12.4345L18.3159 11.638C13.9699 9.12937 10.422 11.1514 10.4076 16.1452L10.3848 24.1962C10.3708 29.1943 13.8955 35.2969 18.2415 37.8059L25.2493 41.8516C29.5949 44.3607 33.1432 42.3402 33.1572 37.3449L33.1672 33.8014V33.4847L33.1791 29.2923C33.1943 24.2989 29.6692 18.1936 25.3237 15.6845ZM29.2858 31.7586V31.9273L29.277 35.1029C29.2766 35.311 29.2626 35.5189 29.235 35.7251C29.2182 35.8479 29.195 35.965 29.1698 36.079C28.7536 37.8783 27.1582 38.4845 25.2629 37.3905L18.2543 33.346C16.0487 32.0733 14.2602 28.9748 14.2674 26.4389L14.2902 18.3863C14.2954 16.577 15.2146 15.537 16.5429 15.5534C16.6752 15.5557 16.8071 15.5676 16.9376 15.589C17.4197 15.6744 17.8821 15.8474 18.3019 16.0996L20.3479 17.2787L20.7478 17.5091L25.3117 20.1441C27.5164 21.4188 29.3062 24.5161 29.2978 27.0519L29.2858 31.7586Z" fill="url(#paint1_linear)"/>
<path d="M39.2285 25.3012C39.2285 25.2784 39.2261 25.2552 39.2253 25.2325C39.2253 25.1853 39.2209 25.1377 39.2185 25.0905C39.2157 25.0341 39.2141 24.9786 39.2105 24.9218C39.2077 24.8778 39.2033 24.833 39.1997 24.7886C39.1961 24.7442 39.1921 24.6887 39.1877 24.6383C39.1849 24.6055 39.1829 24.5727 39.1797 24.5399C39.1725 24.4655 39.1633 24.3908 39.1549 24.3164C39.1501 24.2764 39.1465 24.2364 39.1413 24.1964C39.1413 24.1832 39.1385 24.1701 39.1369 24.1565C39.1204 24.0253 39.1016 23.8936 39.0805 23.7614L39.0786 23.7498C39.075 23.727 39.0706 23.7042 39.0666 23.6814C39.0494 23.5759 39.0318 23.4703 39.0118 23.3643C39.0078 23.3432 39.003 23.3224 38.999 23.3012C38.9886 23.248 38.9774 23.1948 38.9666 23.1412C38.9538 23.0785 38.9422 23.0161 38.9266 22.9537C38.9186 22.9165 38.909 22.8793 38.9006 22.8421C38.8876 22.7846 38.8742 22.727 38.8606 22.6694C38.8502 22.6266 38.8414 22.5838 38.8306 22.5411C38.817 22.4863 38.8015 22.4311 38.7875 22.3759C38.7735 22.3207 38.7579 22.2616 38.7423 22.2044C38.7351 22.1772 38.7283 22.15 38.7207 22.1244C38.6987 22.0444 38.6747 21.9669 38.6515 21.8881C38.6375 21.8409 38.6243 21.7933 38.6115 21.7462C38.6075 21.7334 38.6043 21.7206 38.6003 21.7062C38.5585 21.5699 38.5149 21.4339 38.4696 21.2979L38.4668 21.2899C38.4604 21.2711 38.4536 21.2527 38.4472 21.2339C38.4072 21.1212 38.37 21.008 38.3272 20.8953C38.32 20.8753 38.312 20.8553 38.3048 20.8353C38.288 20.7893 38.2705 20.7433 38.2529 20.6973C38.2293 20.6346 38.2065 20.5718 38.1821 20.509C38.1657 20.4666 38.1481 20.4246 38.1309 20.3823C38.1109 20.3321 38.0908 20.2822 38.0705 20.2323C38.0561 20.1967 38.0425 20.1611 38.0277 20.126C37.9966 20.0512 37.9642 19.9772 37.9322 19.9028C37.9158 19.8629 37.8998 19.8265 37.883 19.7881L37.8662 19.7481C37.8097 19.6204 37.7517 19.4931 37.6923 19.3662L37.6843 19.3494C37.6663 19.3095 37.6471 19.2735 37.6291 19.2351C37.5835 19.1395 37.5379 19.044 37.4907 18.9492C37.4831 18.934 37.4747 18.9188 37.4671 18.9032C37.4272 18.8232 37.3872 18.7433 37.3444 18.6657C37.3116 18.6021 37.2796 18.5385 37.246 18.4754C37.2396 18.4638 37.2328 18.4526 37.2264 18.4406C37.1166 18.2361 37.0029 18.0335 36.8854 17.8328C36.8754 17.8156 36.8666 17.7984 36.8566 17.7812C36.827 17.7308 36.7958 17.6817 36.7658 17.6317C36.7154 17.5481 36.6654 17.4645 36.6139 17.3818C36.5691 17.3098 36.5235 17.2386 36.4779 17.1674C36.4255 17.0875 36.3736 17.0047 36.32 16.9239C36.302 16.8963 36.2848 16.8684 36.2664 16.8412C36.248 16.814 36.2316 16.7928 36.2148 16.768C36.0697 16.5533 35.9221 16.341 35.7694 16.1334L35.7674 16.1302C35.7526 16.1098 35.7366 16.0903 35.7218 16.0703C35.6274 15.9434 35.5317 15.8178 35.4347 15.6936L35.4179 15.6716C35.3419 15.5752 35.2644 15.4809 35.1872 15.3861C35.1644 15.3585 35.1424 15.3301 35.1196 15.3025L35.1144 15.2961C35.0142 15.1757 34.9126 15.0568 34.8097 14.9395L34.7965 14.9251C34.7673 14.8915 34.737 14.8595 34.7074 14.8263C34.6394 14.7503 34.5714 14.6736 34.5022 14.5992L34.4671 14.5624C34.4231 14.5152 34.3783 14.4693 34.3335 14.4225C34.2823 14.3689 34.2315 14.3141 34.1796 14.2625C34.162 14.2445 34.1436 14.2273 34.1256 14.2093C34.0768 14.1602 34.0276 14.1122 33.9784 14.0638C33.9293 14.0154 33.8917 13.9766 33.8477 13.9342C33.8241 13.9119 33.8001 13.8903 33.7765 13.8679C33.7233 13.8175 33.6698 13.7679 33.6166 13.7187C33.5766 13.6835 33.5406 13.6472 33.5022 13.6124C33.4738 13.5868 33.4446 13.5624 33.4159 13.5368C33.3625 13.4891 33.3086 13.4419 33.2539 13.3952C33.2199 13.3661 33.1867 13.3357 33.1523 13.3069C33.118 13.2781 33.0816 13.2497 33.0464 13.2205C32.9931 13.1768 32.9398 13.1335 32.8864 13.0906C32.8581 13.0678 32.8301 13.0438 32.8013 13.021C32.7569 12.9862 32.7121 12.9534 32.6677 12.919C32.6233 12.8846 32.5686 12.8427 32.519 12.8055C32.4982 12.7899 32.479 12.7735 32.4566 12.7579C32.3962 12.7135 32.3367 12.6715 32.2743 12.6283C32.2343 12.5987 32.1911 12.5684 32.1491 12.5396L32.1147 12.5152C32.0044 12.4395 31.8934 12.366 31.7817 12.2949H31.7793L31.7625 12.2845C31.6589 12.2189 31.5545 12.1545 31.4498 12.0929L31.3726 12.0481L24.3688 8.00245C24.2854 7.9542 24.2022 7.90769 24.1193 7.8629C24.0873 7.84571 24.0557 7.83011 24.0237 7.81332L23.8962 7.74735C23.8634 7.73055 23.8302 7.71256 23.7978 7.69616C23.7438 7.66937 23.6907 7.64578 23.6379 7.62059C23.6003 7.603 23.5631 7.58461 23.5259 7.56781L23.4807 7.54662C23.3741 7.49944 23.2693 7.45505 23.1665 7.41347L23.1505 7.40747C23.0501 7.36749 22.9505 7.3299 22.851 7.29471L22.8054 7.27792C22.7654 7.26472 22.7286 7.25273 22.6902 7.24033C22.6378 7.22314 22.5855 7.20475 22.5335 7.18915C22.5059 7.18076 22.4787 7.17436 22.4511 7.16636C22.4047 7.15277 22.3588 7.14037 22.3124 7.12638C22.2776 7.11718 22.2424 7.10598 22.208 7.09759C22.1736 7.08919 22.1324 7.08279 22.0941 7.074C22.0481 7.0636 22.0017 7.0528 21.9561 7.04281C21.9329 7.03801 21.9089 7.03161 21.8857 7.02721C21.8413 7.01842 21.7982 7.01322 21.7538 7.00562C21.7006 6.99642 21.647 6.98683 21.5938 6.97923C21.5766 6.97723 21.5582 6.97323 21.5407 6.97083C21.4959 6.96284 21.4519 6.96284 21.4075 6.95724C21.3507 6.95084 21.2939 6.94444 21.238 6.94005C21.2224 6.94005 21.206 6.93645 21.1904 6.93525C21.1504 6.93245 21.114 6.93325 21.0752 6.93125C21.0077 6.92805 20.9409 6.92525 20.8737 6.92285C20.8557 6.92285 20.8373 6.92285 20.8193 6.92285C20.7901 6.92285 20.7621 6.92645 20.733 6.92685C20.649 6.92685 20.5658 6.93245 20.4838 6.93845C20.4595 6.93845 20.4343 6.93845 20.4103 6.94204C20.3747 6.94524 20.3403 6.95044 20.3051 6.95444L20.2291 6.96284C20.1368 6.97523 20.0452 6.98923 19.9552 7.00762L19.9452 7.01082C19.9185 7.01642 19.8925 7.02361 19.8653 7.02961C19.7921 7.04601 19.7193 7.0632 19.6482 7.08319C19.6118 7.09359 19.5766 7.10558 19.5406 7.11718C19.4946 7.13157 19.4478 7.14437 19.4022 7.16076C19.3903 7.16476 19.3791 7.17076 19.3675 7.17476C19.2963 7.20075 19.2275 7.22994 19.1583 7.25993C19.1248 7.27432 19.0904 7.28752 19.0576 7.30271C18.9568 7.34989 18.8577 7.40067 18.7621 7.45625L14.9055 9.69542C15.0015 9.63984 15.1002 9.58906 15.2006 9.54188C15.2338 9.52629 15.2682 9.51349 15.3018 9.4987C15.3705 9.46871 15.4397 9.43952 15.5105 9.41353C15.5673 9.39274 15.6253 9.37354 15.6836 9.35595C15.7196 9.34475 15.7548 9.33236 15.7912 9.32196C15.8624 9.30197 15.9355 9.28478 16.0083 9.26838C16.0347 9.26238 16.0607 9.25519 16.0883 9.24959C16.1814 9.23079 16.2762 9.2156 16.3722 9.20281C16.3974 9.19961 16.423 9.19681 16.4481 9.19401C16.5073 9.18721 16.5681 9.18241 16.6269 9.17801C16.7088 9.17162 16.792 9.16802 16.876 9.16602C16.9228 9.16602 16.9692 9.16322 17.0163 9.16362C17.0827 9.16362 17.1503 9.16722 17.2163 9.17042C17.2702 9.17282 17.3242 9.17482 17.379 9.17921C17.4338 9.18361 17.4918 9.19041 17.5485 9.19641C17.6053 9.20241 17.6725 9.21 17.7357 9.2188C17.7884 9.2264 17.8416 9.23599 17.8956 9.24519C17.9628 9.25679 18.03 9.26838 18.0979 9.28278C18.1435 9.29237 18.1899 9.30277 18.2359 9.31356C18.3084 9.33036 18.3813 9.34848 18.4546 9.36794C18.5006 9.38034 18.547 9.39274 18.5929 9.40793C18.6729 9.43072 18.7529 9.45591 18.8329 9.4819C18.8728 9.4943 18.9092 9.50629 18.9476 9.51949C19.0612 9.55947 19.1751 9.59946 19.2903 9.64624L19.3063 9.65224C19.4262 9.70022 19.5462 9.7526 19.6662 9.80738C19.7033 9.82418 19.7405 9.84257 19.7781 9.86016C19.8642 9.90068 19.9507 9.94293 20.0376 9.98691C20.08 10.0085 20.1225 10.0305 20.1652 10.0529C20.2795 10.1133 20.3943 10.1748 20.5098 10.2416L27.52 14.2877C27.6504 14.3629 27.7799 14.4414 27.9087 14.5232L27.9271 14.5344C28.051 14.6144 28.1742 14.6944 28.2966 14.7803C28.3385 14.8095 28.3801 14.8399 28.4217 14.8695C28.5017 14.9275 28.5852 14.9863 28.6664 15.0466C28.716 15.0838 28.7652 15.1218 28.8148 15.1598C28.8881 15.216 28.9611 15.2734 29.0339 15.3317C29.0872 15.3744 29.1405 15.4176 29.1938 15.4613C29.2634 15.5189 29.3326 15.5772 29.4013 15.6364C29.4547 15.6831 29.508 15.7301 29.5613 15.7776C29.6287 15.8373 29.6954 15.8979 29.7612 15.9595C29.8148 16.0087 29.8684 16.0583 29.9211 16.1086C29.9891 16.173 30.0567 16.2386 30.1239 16.3046C30.1727 16.3526 30.2218 16.4005 30.2702 16.4493C30.3402 16.5197 30.409 16.5917 30.4781 16.6636C30.5229 16.7104 30.5677 16.7564 30.6121 16.804C30.6921 16.8904 30.772 16.9787 30.852 17.0671C30.8816 17.1003 30.912 17.1327 30.9416 17.1663C31.0506 17.2902 31.1583 17.4162 31.2647 17.5441C31.2874 17.5717 31.3094 17.6001 31.3322 17.6277C31.4154 17.7292 31.4986 17.8312 31.5797 17.9352C31.6768 18.0591 31.7723 18.1847 31.8664 18.3118C31.882 18.333 31.8984 18.3518 31.9144 18.375C32.0672 18.5825 32.2151 18.7948 32.3598 19.0092C32.395 19.0611 32.4306 19.1131 32.465 19.1655C32.5182 19.2455 32.5706 19.3274 32.6229 19.409C32.6685 19.4802 32.7141 19.5514 32.7589 19.6233C32.8105 19.7061 32.8605 19.7897 32.9108 19.8732C32.9508 19.94 32.9908 20.0068 33.0308 20.0732C33.1481 20.2739 33.2618 20.4766 33.3719 20.6813C33.4119 20.7557 33.4518 20.8305 33.489 20.9049C33.5262 20.9792 33.5722 21.0648 33.6122 21.1448C33.6674 21.2547 33.7213 21.3655 33.7741 21.4763C33.7925 21.5162 33.8113 21.5522 33.8293 21.5906C33.8975 21.7359 33.9642 21.8825 34.0292 22.0304C34.046 22.0704 34.0624 22.1076 34.0788 22.1464C34.126 22.2557 34.1721 22.3654 34.2172 22.4755C34.2377 22.5256 34.2578 22.5756 34.2775 22.6254C34.3194 22.7305 34.3594 22.8356 34.3975 22.9409C34.4147 22.9869 34.4323 23.0329 34.4495 23.0789C34.498 23.2121 34.5448 23.3454 34.5898 23.4787C34.5962 23.4971 34.603 23.5159 34.6094 23.5343C34.6601 23.6857 34.7083 23.8371 34.7542 23.9885C34.7685 24.0361 34.7817 24.0837 34.7941 24.1313C34.8253 24.2368 34.8557 24.3424 34.8841 24.4479C34.8997 24.5055 34.9145 24.5631 34.9297 24.6211C34.955 24.7184 34.9793 24.8157 35.0025 24.913C35.0163 24.9708 35.0297 25.0285 35.0424 25.0861C35.0651 25.1858 35.0864 25.2855 35.1064 25.3852C35.1172 25.4384 35.1284 25.4916 35.1388 25.5451C35.1633 25.6723 35.1859 25.799 35.2064 25.9254C35.21 25.9482 35.2148 25.971 35.2184 25.9938C35.2421 26.1431 35.263 26.2918 35.2812 26.44C35.2864 26.48 35.29 26.52 35.2948 26.56C35.307 26.6666 35.3179 26.7739 35.3275 26.8818C35.3319 26.9322 35.3359 26.9822 35.3395 27.0322C35.347 27.133 35.3531 27.2333 35.3579 27.3333C35.3603 27.3809 35.3627 27.4284 35.3647 27.476C35.3699 27.6176 35.3731 27.7583 35.3727 27.8983L35.3499 35.9509C35.3499 36.0976 35.3455 36.2412 35.3391 36.3827C35.3391 36.4227 35.3339 36.4627 35.3319 36.5027C35.3263 36.5998 35.3199 36.6962 35.3111 36.791C35.3064 36.8457 35.3004 36.8993 35.2944 36.9533C35.2856 37.0333 35.2764 37.1132 35.2656 37.1932C35.2576 37.2508 35.2492 37.3072 35.24 37.3636C35.2285 37.4361 35.2161 37.5076 35.2028 37.5783C35.1908 37.6415 35.1783 37.704 35.1652 37.7658C35.1521 37.8277 35.1377 37.8904 35.122 37.9541C35.1044 38.0269 35.0858 38.0986 35.066 38.1693C35.0504 38.2248 35.0349 38.28 35.0181 38.3344C34.9921 38.4188 34.9645 38.5011 34.9357 38.5827C34.9197 38.6275 34.9045 38.6727 34.8881 38.7167C34.8357 38.8542 34.7801 38.9882 34.7194 39.1165C34.6722 39.2165 34.623 39.314 34.571 39.408C34.5654 39.4184 34.5586 39.428 34.553 39.4384C34.5054 39.5232 34.4563 39.6055 34.4051 39.6855C34.3927 39.7047 34.3795 39.7231 34.3651 39.7423C34.3219 39.807 34.2775 39.8704 34.2319 39.9322C34.2132 39.9574 34.194 39.9826 34.1748 40.0074C34.1305 40.0644 34.0851 40.1199 34.0384 40.1737C34.0212 40.1941 34.004 40.2137 33.9864 40.2345C33.9229 40.3057 33.8573 40.3748 33.7897 40.4404C33.7793 40.4504 33.7681 40.46 33.7577 40.47C33.6996 40.5252 33.6402 40.5785 33.5794 40.6299C33.557 40.6487 33.5338 40.6671 33.511 40.6855C33.4577 40.7279 33.4044 40.7687 33.3511 40.8079C33.3283 40.8243 33.3059 40.8411 33.2827 40.8567C33.2063 40.909 33.1288 40.9594 33.0488 41.0058L36.905 38.7666C36.9849 38.7203 37.0625 38.6699 37.1393 38.6175C37.1625 38.6019 37.1849 38.5851 37.2072 38.5687C37.2619 38.5295 37.3152 38.4887 37.3672 38.4464C37.39 38.428 37.4132 38.4096 37.4356 38.3908C37.4966 38.3396 37.5563 38.2863 37.6147 38.2308C37.6251 38.2212 37.6359 38.212 37.6459 38.202C37.7135 38.1365 37.779 38.0673 37.8426 37.9961C37.8602 37.9761 37.8774 37.9561 37.895 37.9349C37.9414 37.8816 37.9868 37.8262 38.0313 37.7686C38.0505 37.7438 38.0713 37.7186 38.0885 37.6934C38.1341 37.6319 38.1784 37.5687 38.2213 37.5039C38.2341 37.4847 38.2473 37.4663 38.2613 37.4467L38.2733 37.4291C38.3204 37.3552 38.3648 37.2784 38.4088 37.2008C38.4148 37.19 38.4216 37.1804 38.4276 37.1696C38.4777 37.079 38.5256 36.9857 38.5711 36.8897L38.5759 36.8781C38.6367 36.7498 38.6923 36.6158 38.7447 36.4783C38.7495 36.4659 38.7551 36.4547 38.7599 36.4423C38.7715 36.4107 38.7811 36.3767 38.7923 36.3447C38.821 36.2648 38.849 36.1804 38.875 36.096C38.8822 36.0728 38.8906 36.0512 38.8974 36.0281C38.9066 35.9969 38.9138 35.9633 38.9226 35.9317C38.9423 35.8608 38.9611 35.7889 38.979 35.7162C38.9862 35.6858 38.9954 35.6574 39.0022 35.6266C39.009 35.5958 39.015 35.561 39.0218 35.5286C39.0351 35.4665 39.0478 35.4037 39.0598 35.3403C39.0662 35.3071 39.0738 35.2751 39.0798 35.2415C39.0857 35.208 39.0909 35.1644 39.0969 35.1264C39.1057 35.07 39.1145 35.0132 39.1225 34.9557C39.1265 34.9257 39.1321 34.8969 39.1357 34.8665C39.1417 34.8177 39.1457 34.7669 39.1513 34.7177C39.1569 34.6686 39.1633 34.6098 39.1681 34.5546C39.1701 34.5322 39.1733 34.5106 39.1749 34.4882C39.1809 34.4163 39.1841 34.3415 39.1885 34.2679C39.1909 34.2279 39.1941 34.1879 39.1961 34.1479C39.1961 34.138 39.1961 34.1284 39.1961 34.1184C39.2014 33.9939 39.2044 33.8674 39.2049 33.7389V33.7165L39.2277 25.6639C39.2317 25.5405 39.232 25.4196 39.2285 25.3012Z" fill="url(#paint2_linear)"/>
<defs>
<linearGradient id="paint0_linear" x1="16.8779" y1="25.8347" x2="29.2849" y2="25.8347" gradientUnits="userSpaceOnUse">
<stop stop-color="#FFAA55"/>
<stop offset="1" stop-color="#E661C9"/>
</linearGradient>
<linearGradient id="paint1_linear" x1="10.3848" y1="26.7452" x2="33.1803" y2="26.7452" gradientUnits="userSpaceOnUse">
<stop stop-color="#00D2C9"/>
<stop offset="1" stop-color="#E661C9"/>
</linearGradient>
<linearGradient id="paint2_linear" x1="289.977" y1="1459.27" x2="1769.93" y2="1459.27" gradientUnits="userSpaceOnUse">
<stop stop-color="#FFAA55"/>
<stop offset="1" stop-color="#E661C9"/>
</linearGradient>
</defs>
</svg>
