<svg width="50" height="50" viewBox="0 0 50 50" fill="none" xmlns="http://www.w3.org/2000/svg">
<g clip-path="url(#clip0)">
<path d="M48.9919 1.00781H1.00806V48.9917H48.9919V1.00781Z" fill="#F2F2F2" stroke="#F2F2F2" stroke-width="5"/>
<path d="M39.1129 1.00781H10.8871C5.43105 1.00781 1.00806 5.43081 1.00806 10.8868V39.1127C1.00806 44.5687 5.43105 48.9917 10.8871 48.9917H39.1129C44.5689 48.9917 48.9919 44.5687 48.9919 39.1127V10.8868C48.9919 5.43081 44.5689 1.00781 39.1129 1.00781Z" fill="#122240" stroke="#F2F2F2" stroke-width="5"/>
<path d="M9.46938 38.9712C9.46938 39.4858 9.30974 39.9237 8.99055 40.2849C8.65664 40.661 8.23555 40.8489 7.72733 40.8489C7.28208 40.8489 6.92297 40.7009 6.64995 40.4046V41.9199H5.57886V37.1441H6.58378V37.5379H6.60583C6.87886 37.1935 7.25059 37.0213 7.72099 37.0213C8.25656 37.0213 8.68708 37.2166 9.01261 37.6072C9.31712 37.9727 9.46938 38.4273 9.46938 38.9712ZM8.39829 38.9398C8.39829 38.6814 8.31325 38.4651 8.14313 38.2908C7.97091 38.1123 7.75672 38.0231 7.50051 38.0231C7.24426 38.0231 7.03112 38.1123 6.86099 38.2908C6.69091 38.4651 6.60583 38.6814 6.60583 38.9398C6.60583 39.1918 6.69091 39.406 6.86099 39.5824C7.03531 39.7588 7.24849 39.847 7.50051 39.847C7.75462 39.847 7.96777 39.7588 8.13999 39.5824C8.3122 39.406 8.39829 39.1918 8.39829 38.9398ZM12.7676 40.7259V40.3384H12.755C12.6647 40.5106 12.5146 40.6421 12.3045 40.7324C12.1239 40.8098 11.9255 40.8489 11.7092 40.8489C11.1694 40.8489 10.7316 40.663 10.3955 40.2912C10.0721 39.93 9.91039 39.4774 9.91039 38.9335C9.91039 38.3979 10.0753 37.9485 10.405 37.5852C10.7473 37.2092 11.182 37.0213 11.7092 37.0213C11.9234 37.0213 12.1208 37.0612 12.3014 37.141C12.503 37.2292 12.6542 37.3573 12.755 37.5253H12.7676V37.1441H13.8387V40.7259H12.7676ZM12.7676 38.9335C12.7676 38.6709 12.6826 38.4536 12.5124 38.2814C12.3424 38.1091 12.1271 38.0231 11.8667 38.0231C11.6084 38.0231 11.3952 38.1133 11.2272 38.294C11.0634 38.4683 10.9815 38.6856 10.9815 38.946C10.9815 39.196 11.0665 39.4081 11.2366 39.5824C11.411 39.7588 11.6231 39.847 11.873 39.847C12.1313 39.847 12.3455 39.7599 12.5156 39.5856C12.6836 39.4112 12.7676 39.1939 12.7676 38.9335ZM16.866 40.7259V38.7696C16.866 38.5365 16.8324 38.3633 16.7652 38.2499C16.6791 38.1029 16.5258 38.0294 16.3053 38.0294C16.0722 38.0294 15.9073 38.1008 15.8107 38.2436C15.7309 38.3612 15.691 38.5397 15.691 38.7791V40.7259H14.6199V37.1441H15.6186V37.5253H15.6343C15.8401 37.1893 16.1646 37.0213 16.6077 37.0213C16.971 37.0213 17.2766 37.1252 17.5244 37.3331C17.6799 37.4634 17.7912 37.6387 17.8584 37.8592C17.9109 38.0314 17.9371 38.2404 17.9371 38.4861V40.7259H16.866ZM19.9816 37.9569V40.7259H18.9105V37.9569H18.3813V37.1441H18.9105V35.9502H19.9816V37.1441H20.4982V37.9569H19.9816ZM24.6502 38.9335C24.6502 39.4795 24.4654 39.9331 24.0958 40.2944C23.7283 40.6558 23.2693 40.836 22.7191 40.836C22.1689 40.836 21.7111 40.6558 21.3456 40.2944C20.976 39.9331 20.7912 39.4795 20.7912 38.9335C20.7912 38.3853 20.976 37.9306 21.3456 37.5694C21.7111 37.2082 22.1689 37.0276 22.7191 37.0276C23.2693 37.0276 23.7283 37.2082 24.0958 37.5694C24.4654 37.9306 24.6502 38.3853 24.6502 38.9335ZM23.5791 38.9335C23.5791 38.6856 23.4983 38.4746 23.3366 38.3003C23.1706 38.1197 22.9648 38.0294 22.7191 38.0294C22.4755 38.0294 22.2708 38.1197 22.1048 38.3003C21.9431 38.4746 21.8623 38.6856 21.8623 38.9335C21.8623 39.1792 21.9431 39.3902 22.1048 39.5666C22.2708 39.7452 22.4755 39.8344 22.7191 39.8344C22.9648 39.8344 23.1706 39.7452 23.3366 39.5666C23.4983 39.3902 23.5791 39.1792 23.5791 38.9335ZM28.966 40.4457C28.9639 40.5001 28.9628 40.5505 28.9628 40.5969C28.9565 40.7102 28.9481 40.8122 28.9376 40.9025C28.9061 41.1251 28.8442 41.3162 28.7518 41.4755C28.5858 41.755 28.3212 41.9703 27.9579 42.1215C27.6408 42.2537 27.3016 42.3199 26.9404 42.3199C26.6128 42.3199 26.3198 42.2675 26.0615 42.1622C25.7696 42.0429 25.5396 41.861 25.3716 41.6175C25.2498 41.4408 25.1763 41.255 25.1511 41.0598H26.3922C26.4972 41.2973 26.7052 41.4158 27.016 41.4158C27.5977 41.4158 27.8886 41.0912 27.8886 40.4425V40.332H27.876C27.7857 40.4981 27.646 40.6263 27.457 40.7166C27.2848 40.8005 27.0968 40.8425 26.8931 40.8425C26.366 40.8425 25.9313 40.6586 25.5889 40.2912C25.255 39.9342 25.0881 39.49 25.0881 38.9587C25.0881 38.4189 25.2529 37.9653 25.5826 37.5978C25.925 37.2177 26.3618 37.0276 26.8931 37.0276C27.0968 37.0276 27.2817 37.0623 27.4476 37.1315C27.6408 37.2114 27.7857 37.3279 27.8823 37.4812H27.8949V37.1441H28.966V40.4457ZM27.8949 38.9524C27.8949 38.6877 27.8162 38.4693 27.6587 38.2971C27.4948 38.1186 27.2827 38.0294 27.0223 38.0294C26.7787 38.0294 26.5728 38.1175 26.4049 38.294C26.241 38.4662 26.1591 38.6752 26.1591 38.9208C26.1591 39.175 26.2379 39.3902 26.3954 39.5666C26.5571 39.7494 26.764 39.8407 27.016 39.8407C27.2743 39.8407 27.4854 39.7578 27.6492 39.5919C27.813 39.4238 27.8949 39.2107 27.8949 38.9524ZM31.6373 38.0987C31.3622 38.1071 31.1627 38.1491 31.0388 38.2247C30.875 38.3255 30.7931 38.5029 30.7931 38.7571V40.7259H29.722V37.1441H30.7269V37.5253H30.7427C30.9128 37.1893 31.211 37.0213 31.6373 37.0213V38.0987ZM34.7623 40.7259V40.3384H34.7497C34.6594 40.5106 34.5093 40.6421 34.2993 40.7324C34.1187 40.8098 33.9202 40.8489 33.7039 40.8489C33.1641 40.8489 32.7263 40.663 32.3902 40.2912C32.0668 39.93 31.9051 39.4774 31.9051 38.9335C31.9051 38.3979 32.07 37.9485 32.3997 37.5852C32.742 37.2092 33.1767 37.0213 33.7039 37.0213C33.9181 37.0213 34.1155 37.0612 34.2961 37.141C34.4977 37.2292 34.6489 37.3573 34.7497 37.5253H34.7623V37.1441H35.8334V40.7259H34.7623ZM34.7623 38.9335C34.7623 38.6709 34.6773 38.4536 34.5072 38.2814C34.337 38.1091 34.1218 38.0231 33.8614 38.0231C33.6031 38.0231 33.3899 38.1133 33.2219 38.294C33.0581 38.4683 32.9762 38.6856 32.9762 38.946C32.9762 39.196 33.0612 39.4081 33.2314 39.5824C33.4057 39.7588 33.6178 39.847 33.8677 39.847C34.126 39.847 34.3402 39.7599 34.5103 39.5856C34.6783 39.4112 34.7623 39.1939 34.7623 38.9335ZM40.5051 38.9712C40.5051 39.4858 40.3454 39.9237 40.0263 40.2849C39.6924 40.661 39.2713 40.8489 38.7631 40.8489C38.3178 40.8489 37.9587 40.7009 37.6857 40.4046V41.9199H36.6147V37.1441H37.6196V37.5379H37.6416C37.9146 37.1935 38.2864 37.0213 38.7568 37.0213C39.2923 37.0213 39.7228 37.2166 40.0484 37.6072C40.3531 37.9727 40.5051 38.4273 40.5051 38.9712ZM39.4341 38.9398C39.4341 38.6814 39.349 38.4651 39.1789 38.2908C39.0067 38.1123 38.7925 38.0231 38.5363 38.0231C38.2801 38.0231 38.0669 38.1123 37.8968 38.2908C37.7267 38.4651 37.6416 38.6814 37.6416 38.9398C37.6416 39.1918 37.7267 39.406 37.8968 39.5824C38.0711 39.7588 38.2843 39.847 38.5363 39.847C38.7904 39.847 39.0036 39.7588 39.1758 39.5824C39.348 39.406 39.4341 39.1918 39.4341 38.9398ZM43.3591 40.7259V38.7791C43.3591 38.5544 43.3216 38.3811 43.2458 38.2593C43.1515 38.106 42.997 38.0294 42.7829 38.0294C42.5664 38.0294 42.4087 38.0966 42.3103 38.231C42.2261 38.3465 42.1841 38.5155 42.1841 38.7381V40.7259H41.1132V35.9502H42.1841V37.4749H42.1966C42.2849 37.3174 42.4172 37.1998 42.5938 37.1221C42.745 37.0549 42.9204 37.0213 43.12 37.0213C43.5442 37.0213 43.8684 37.1525 44.0934 37.4151C44.2466 37.5915 44.3454 37.7983 44.3894 38.0356C44.4083 38.1302 44.4196 38.2414 44.4241 38.3696C44.4261 38.42 44.4281 38.4788 44.4305 38.546V40.7259H43.3591Z" fill="white"/>
<path d="M21.1245 19.6244C21.1135 19.6335 21.103 19.6435 21.0925 19.654C21.0384 19.7081 20.9954 19.7723 20.9662 19.843C20.9369 19.9137 20.9218 19.9895 20.9218 20.066C20.9218 20.1425 20.9369 20.2183 20.9662 20.289C20.9954 20.3597 21.0384 20.4239 21.0925 20.478L21.0961 20.4813L28.845 28.2305L25.005 32.0706L17.2593 24.3252C17.2137 24.278 17.1603 24.2389 17.1014 24.2097C16.986 24.1519 16.8548 24.1342 16.7282 24.1592C16.6016 24.1842 16.4869 24.2506 16.4022 24.3479L8.67895 32.0706L4.83862 28.2305L12.5881 20.4794C12.6423 20.4253 12.6854 20.361 12.7147 20.2903C12.7441 20.2195 12.7592 20.1437 12.7592 20.0671C12.7592 19.9905 12.7441 19.9147 12.7147 19.8439C12.6854 19.7732 12.6423 19.7089 12.5881 19.6548L4.83862 11.9045L8.67895 8.06445L16.4276 15.8134L16.4312 15.8167C16.4853 15.8708 16.5496 15.9137 16.6202 15.943C16.6909 15.9723 16.7667 15.9874 16.8432 15.9874C16.9197 15.9874 16.9955 15.9723 17.0662 15.943C17.1368 15.9137 17.2011 15.8708 17.2552 15.8167C17.2654 15.8062 17.2754 15.7957 17.2848 15.7847L25.005 8.06445L28.845 11.9045L21.1245 19.6244Z" fill="white"/>
<path d="M37.4407 19.6244C37.4297 19.6335 37.4191 19.6435 37.4086 19.654C37.3545 19.7081 37.3116 19.7723 37.2823 19.843C37.253 19.9137 37.238 19.9895 37.238 20.066C37.238 20.1425 37.253 20.2183 37.2823 20.289C37.3116 20.3597 37.3545 20.4239 37.4086 20.478L37.4122 20.4813L45.1612 28.2303L41.3213 32.0706L33.5755 24.3252C33.5299 24.278 33.4765 24.2389 33.4176 24.2097C33.3022 24.1519 33.1709 24.1342 33.0443 24.1592C32.9178 24.1842 32.8031 24.2506 32.7184 24.3479L24.9951 32.0706L21.1548 28.2305L28.9043 20.4794C28.9585 20.4253 29.0016 20.361 29.0309 20.2903C29.0602 20.2195 29.0753 20.1437 29.0753 20.0671C29.0753 19.9905 29.0602 19.9147 29.0309 19.8439C29.0016 19.7732 28.9585 19.7089 28.9043 19.6548L21.1548 11.9045L24.9951 8.06445L32.7438 15.8134L32.7474 15.8167C32.8015 15.8708 32.8657 15.9138 32.9364 15.943C33.0071 15.9723 33.0828 15.9874 33.1594 15.9874C33.2359 15.9874 33.3116 15.9723 33.3823 15.943C33.453 15.9138 33.5172 15.8708 33.5714 15.8167C33.5816 15.8062 33.5916 15.7957 33.6009 15.7847L41.3213 8.06445L45.1612 11.9045L37.4407 19.6244Z" fill="white"/>
</g>
<defs>
<clipPath id="clip0">
<rect width="50" height="50" rx="12" fill="white"/>
</clipPath>
</defs>
</svg>
