<svg width="25" height="19" viewBox="0 0 25 19" fill="none" xmlns="http://www.w3.org/2000/svg">
<path d="M11.6282 11.5029L10.1238 9.87303C9.9984 9.74766 9.62229 9.74766 9.49692 9.87303L7.36559 12.0044C7.36559 12.0044 7.24022 12.0044 7.11485 12.0044L2.35072 7.24022C2.09998 7.11485 1.84923 7.11485 1.59849 7.24022L0.0940289 8.74469C-0.031343 8.99543 -0.031343 9.24617 0.0940289 9.49692L6.86411 16.1416C7.11485 16.3924 7.36559 16.3924 7.61634 16.1416L11.6282 12.2551C11.7536 12.0044 11.7536 11.7536 11.6282 11.5029ZM7.36559 6.11188L12.6312 11.3775L19.5267 18.2729C19.7774 18.5237 20.0282 18.5237 20.2789 18.2729L21.658 16.8939C21.7834 16.6431 21.9087 16.3924 21.658 16.1416L17.6461 11.879L9.9984 4.35667L7.61634 2.09998L5.73576 0.0940289C5.48502 -0.031343 5.23427 -0.031343 4.98353 0.0940289L3.60444 1.47312C3.3537 1.59849 3.3537 1.97461 3.60444 2.22535L5.23427 3.85518L7.36559 6.11188ZM24.9177 8.74469L23.4132 7.24022C23.1624 6.98948 22.9117 6.98948 22.661 7.24022L18.6491 11.1267C18.5237 11.2521 18.5237 11.6282 18.6491 11.7536L20.1535 13.3834C20.2789 13.6342 20.655 13.6342 20.7804 13.3834L24.7923 9.37154C25.043 9.24617 25.043 8.99543 24.9177 8.74469ZM10.6253 3.98056C10.7506 4.10593 10.876 4.10593 11.1267 4.10593C13.3834 3.60444 15.8909 4.35667 17.6461 6.11188L18.2729 6.73874C18.3983 6.86411 18.5237 6.86411 18.6491 6.73874L20.2789 5.1089C20.5296 4.85816 20.5296 4.60741 20.2789 4.35667L19.7774 3.85518C16.8939 0.971631 12.6312 0.219401 8.99543 1.34775C8.87006 1.47312 8.74468 1.97461 8.99543 2.22535L10.6253 3.98056ZM4.60741 4.35667C4.35667 4.60741 4.35667 4.98353 4.60741 5.1089L6.23725 6.73874C6.36262 6.86411 6.48799 6.86411 6.61336 6.73874L6.73874 6.61336L4.60741 4.35667Z" fill="#8B98A4"/>
</svg>
