<svg width="30" height="19" viewBox="0 0 30 19" fill="none" xmlns="http://www.w3.org/2000/svg">
<path d="M6.14162 3.59252C11.034 -1.19751 18.9661 -1.19751 23.8584 3.59252L24.4472 4.16901C24.6918 4.40851 24.6918 4.79682 24.4472 5.03632L22.433 7.00837C22.3107 7.12812 22.1124 7.12812 21.9901 7.00837L21.1799 6.21506C17.7668 2.87341 12.2332 2.87341 8.82018 6.21506L7.95246 7.06463C7.83015 7.18438 7.63184 7.18438 7.50954 7.06463L5.49536 5.09258C5.25074 4.85308 5.25074 4.46477 5.49536 4.22527L6.14162 3.59252ZM28.0239 7.67093L29.8165 9.42606C30.0612 9.66556 30.0612 10.0539 29.8165 10.2934L21.7335 18.2075C21.4889 18.447 21.0923 18.447 20.8477 18.2075C20.8476 18.2075 20.8476 18.2075 20.8476 18.2075L15.1108 12.5906C15.0496 12.5307 14.9505 12.5307 14.8893 12.5906C14.8893 12.5906 14.8893 12.5906 14.8893 12.5906L9.15259 18.2075C8.90797 18.447 8.51137 18.447 8.26675 18.2075C8.26675 18.2075 8.26674 18.2075 8.26674 18.2075L0.183463 10.2933C-0.0611544 10.0538 -0.0611544 9.66546 0.183463 9.42596L1.97609 7.67083C2.2207 7.43133 2.61731 7.43133 2.86193 7.67083L8.59887 13.2878C8.66002 13.3477 8.75918 13.3477 8.82033 13.2878C8.82033 13.2878 8.82033 13.2878 8.82033 13.2878L14.557 7.67083C14.8016 7.43132 15.1982 7.43131 15.4428 7.67081C15.4428 7.67081 15.4428 7.67082 15.4428 7.67082L21.1798 13.2878C21.2409 13.3477 21.3401 13.3477 21.4012 13.2878L27.1381 7.67093C27.3827 7.43143 27.7793 7.43143 28.0239 7.67093Z" fill="#00A3FF"/>
</svg>
