<svg width="102" height="47" viewBox="0 0 102 47" fill="none" xmlns="http://www.w3.org/2000/svg">
<path d="M11.9727 16.0664C11.793 16.2617 11.5508 16.4844 11.2461 16.7344C10.9414 16.9844 10.5586 17.2227 10.0977 17.4492C9.64453 17.668 9.10938 17.8516 8.49219 18C7.875 18.1562 7.16406 18.2344 6.35938 18.2344C5.40625 18.2344 4.54688 18.0859 3.78125 17.7891C3.01562 17.4922 2.35938 17.043 1.8125 16.4414C1.26562 15.8398 0.84375 15.082 0.546875 14.168C0.257812 13.2461 0.113281 12.1641 0.113281 10.9219V8.03906C0.113281 6.79688 0.253906 5.71875 0.535156 4.80469C0.816406 3.88281 1.21484 3.11719 1.73047 2.50781C2.25391 1.89844 2.88672 1.44531 3.62891 1.14844C4.37891 0.851563 5.21875 0.703125 6.14844 0.703125C7.11719 0.703125 7.95312 0.824219 8.65625 1.06641C9.35938 1.30859 9.94531 1.67188 10.4141 2.15625C10.8828 2.63281 11.2422 3.22656 11.4922 3.9375C11.7422 4.64062 11.9023 5.45312 11.9727 6.375H8.62109C8.57422 5.83594 8.49609 5.38672 8.38672 5.02734C8.28516 4.66797 8.13672 4.38281 7.94141 4.17188C7.75391 3.95312 7.51953 3.79688 7.23828 3.70312C6.96484 3.60938 6.63672 3.5625 6.25391 3.5625C5.80078 3.5625 5.40625 3.64453 5.07031 3.80859C4.73438 3.96484 4.45312 4.22266 4.22656 4.58203C4.00781 4.93359 3.84375 5.39453 3.73438 5.96484C3.625 6.52734 3.57031 7.21094 3.57031 8.01562V10.9219C3.57031 11.7344 3.62891 12.4219 3.74609 12.9844C3.87109 13.5469 4.05469 14.0078 4.29688 14.3672C4.54688 14.7188 4.85938 14.9766 5.23438 15.1406C5.60938 15.2969 6.05078 15.375 6.55859 15.375C6.86328 15.375 7.12109 15.3516 7.33203 15.3047C7.55078 15.2578 7.73438 15.2031 7.88281 15.1406C8.03906 15.0703 8.16406 15 8.25781 14.9297C8.35938 14.8594 8.44531 14.8008 8.51562 14.7539V11.625H6.10156V9.02344H11.9727V16.0664ZM18.0078 18H14.5625V0.9375H18.0078V18ZM26.457 13.3125L29.3281 0.9375H33.1719L28.25 18H24.6641L19.7773 0.9375H23.5977L26.457 13.3125ZM43.5898 10.6172H38.2227V15.1406H44.5742V18H34.7773V0.9375H44.5508V3.80859H38.2227V7.83984H43.5898V10.6172ZM54.7109 14.5078H50.0117L49.0977 18H45.4531L50.7852 0.9375H53.9375L59.3047 18H55.625L54.7109 14.5078ZM50.7617 11.6367H53.9492L52.3555 5.55469L50.7617 11.6367ZM71.5273 11.6602L73.1445 0.9375H76.5547L73.5195 18H70.0625L68.0703 7.94531L66.1016 18H62.6328L59.5859 0.9375H63.0195L64.625 11.6484L66.6289 0.9375H69.5234L71.5273 11.6602ZM86.0469 14.5078H81.3477L80.4336 18H76.7891L82.1211 0.9375H85.2734L90.6406 18H86.9609L86.0469 14.5078ZM82.0977 11.6367H85.2852L83.6914 5.55469L82.0977 11.6367ZM95.6328 8.60156L98.1992 0.9375H101.949L97.3789 11.8125V18H93.8867V11.8125L89.3047 0.9375H93.0547L95.6328 8.60156ZM3.81641 40V46H0.371094V28.9375H6.18359C7.05078 28.9375 7.82422 29.0781 8.50391 29.3594C9.19141 29.6406 9.77344 30.0352 10.25 30.543C10.7266 31.043 11.0898 31.6406 11.3398 32.3359C11.5977 33.0234 11.7266 33.7734 11.7266 34.5859C11.7266 35.4141 11.5977 36.1641 11.3398 36.8359C11.0898 37.5 10.7266 38.0664 10.25 38.5352C9.77344 39.0039 9.19141 39.3672 8.50391 39.625C7.81641 39.875 7.04297 40 6.18359 40H3.81641ZM3.81641 37.1289H6.18359C6.54297 37.1289 6.85156 37.0664 7.10938 36.9414C7.375 36.8164 7.58984 36.6445 7.75391 36.4258C7.92578 36.1992 8.05078 35.9336 8.12891 35.6289C8.20703 35.3164 8.24609 34.9766 8.24609 34.6094C8.24609 34.2422 8.20703 33.8906 8.12891 33.5547C8.05078 33.2188 7.92578 32.9219 7.75391 32.6641C7.58984 32.4062 7.375 32.1992 7.10938 32.043C6.85156 31.8867 6.54297 31.8086 6.18359 31.8086H3.81641V37.1289ZM19.2031 39.7656H17.4922V46H14.0469V28.9375H19.543C20.3945 28.9375 21.1523 29.0508 21.8164 29.2773C22.4883 29.4961 23.0547 29.8242 23.5156 30.2617C23.9844 30.6914 24.3398 31.2266 24.582 31.8672C24.832 32.5078 24.957 33.25 24.957 34.0938C24.957 34.7109 24.8984 35.2695 24.7812 35.7695C24.6719 36.2617 24.5078 36.7031 24.2891 37.0938C24.0781 37.4766 23.8203 37.8125 23.5156 38.1016C23.2109 38.3906 22.8672 38.6406 22.4844 38.8516L25.4727 45.8359V46H21.7695L19.2031 39.7656ZM17.4922 36.8945H19.4492C20.1367 36.8945 20.6523 36.668 20.9961 36.2148C21.3398 35.7539 21.5117 35.1406 21.5117 34.375C21.5117 33.9844 21.4727 33.6328 21.3945 33.3203C21.3242 33 21.207 32.7305 21.043 32.5117C20.8867 32.2852 20.6836 32.1133 20.4336 31.9961C20.1836 31.8711 19.8867 31.8086 19.543 31.8086H17.4922V36.8945ZM36.1367 38.6172H30.7695V43.1406H37.1211V46H27.3242V28.9375H37.0977V31.8086H30.7695V35.8398H36.1367V38.6172ZM43.6133 28.9375L46.8359 41.2773L50.0469 28.9375H54.5469V46H51.0898V41.3828L51.4062 34.2695L47.9961 46H45.6523L42.2422 34.2695L42.5586 41.3828V46H39.1133V28.9375H43.6133ZM60.9219 46H57.4766V28.9375H60.9219V46ZM74.9141 28.9375V40.6562C74.9141 41.6484 74.7734 42.4961 74.4922 43.1992C74.2188 43.9023 73.832 44.4805 73.332 44.9336C72.8398 45.3789 72.25 45.707 71.5625 45.918C70.875 46.1289 70.125 46.2344 69.3125 46.2344C68.4844 46.2344 67.7227 46.1289 67.0273 45.918C66.3398 45.707 65.7461 45.3789 65.2461 44.9336C64.7539 44.4805 64.3672 43.9023 64.0859 43.1992C63.8125 42.4961 63.6758 41.6484 63.6758 40.6562V28.9375H67.1445V40.6562C67.1445 41.2188 67.1914 41.6758 67.2852 42.0273C67.3789 42.3789 67.5156 42.6562 67.6953 42.8594C67.8828 43.0547 68.1094 43.1914 68.375 43.2695C68.6484 43.3398 68.9609 43.375 69.3125 43.375C69.6641 43.375 69.9727 43.3398 70.2383 43.2695C70.5117 43.1914 70.7383 43.0547 70.918 42.8594C71.0977 42.6562 71.2344 42.3789 71.3281 42.0273C71.4219 41.6758 71.4688 41.2188 71.4688 40.6562V28.9375H74.9141ZM82.0273 28.9375L85.25 41.2773L88.4609 28.9375H92.9609V46H89.5039V41.3828L89.8203 34.2695L86.4102 46H84.0664L80.6562 34.2695L80.9727 41.3828V46H77.5273V28.9375H82.0273Z" fill="black"/>
</svg>
