<svg width="23" height="6" viewBox="0 0 23 6" fill="none" xmlns="http://www.w3.org/2000/svg">
<path d="M21.9143 1.05546C22.9882 2.1294 22.9882 3.87061 21.9143 4.94455C20.8403 6.01849 19.0991 6.01849 18.0252 4.94455C16.9512 3.87061 16.9512 2.1294 18.0252 1.05546C19.0991 -0.0184851 20.8403 -0.0184851 21.9143 1.05546Z" fill="#828282"/>
<path d="M13.6642 1.05546C14.7382 2.1294 14.7382 3.87061 13.6642 4.94455C12.5903 6.01849 10.8491 6.01849 9.77518 4.94455C8.70124 3.87061 8.70124 2.1294 9.77518 1.05546C10.8491 -0.0184851 12.5903 -0.0184851 13.6642 1.05546Z" fill="#828282"/>
<path d="M5.41426 1.05546C6.4882 2.1294 6.4882 3.87061 5.41426 4.94455C4.34032 6.01849 2.59912 6.01849 1.52518 4.94455C0.451242 3.87061 0.451242 2.1294 1.52518 1.05546C2.59912 -0.0184851 4.34032 -0.0184851 5.41426 1.05546Z" fill="#828282"/>
</svg>
